<?xml version="1.0" standalone="no"?>
<!DOCTYPE svg PUBLIC "-//W3C//DTD SVG 20010904//EN"
 "http://www.w3.org/TR/2001/REC-SVG-20010904/DTD/svg10.dtd">
<svg version="1.0" xmlns="http://www.w3.org/2000/svg"
 width="500.000000pt" height="500.000000pt" viewBox="0 0 500.000000 500.000000"
 preserveAspectRatio="xMidYMid meet">
<metadata>
Created by potrace 1.14, written by Peter Selinger 2001-2017
</metadata>
<g transform="translate(0.000000,500.000000) scale(0.100000,-0.100000)"
fill="#000000" stroke="none">
<path d="M0 2500 l0 -2500 2500 0 2500 0 0 2500 0 2500 -2500 0 -2500 0 0
-2500z m2498 1393 c-21 -2 -57 -2 -80 0 -24 2 -7 4 37 4 44 0 63 -2 43 -4z
m-150 -10 c-10 -2 -28 -2 -40 0 -13 2 -5 4 17 4 22 1 32 -1 23 -4z m275 0
c-13 -2 -35 -2 -50 0 -16 2 -5 4 22 4 28 0 40 -2 28 -4z m-380 -10 c-7 -2 -19
-2 -25 0 -7 3 -2 5 12 5 14 0 19 -2 13 -5z m569 -22 c287 -72 547 -229 735
-442 26 -30 -4 -4 -67 56 -217 207 -455 334 -746 395 -49 10 -77 19 -63 19 15
1 78 -12 141 -28z m-625 13 c-3 -3 -12 -4 -19 -1 -8 3 -5 6 6 6 11 1 17 -2 13
-5z m-297 -94 c-8 -5 -19 -10 -25 -10 -5 0 -3 5 5 10 8 5 20 10 25 10 6 0 3
-5 -5 -10z m530 -61 c0 -6 -9 -13 -20 -16 -11 -3 -20 -9 -20 -14 0 -5 9 -9 20
-9 26 0 26 -16 -1 -23 -25 -7 -16 -27 12 -27 10 0 19 -4 19 -10 0 -5 -15 -10
-34 -10 l-34 0 -4 56 c-1 31 -1 58 1 60 9 9 61 3 61 -7z m240 -41 c6 -24 13
-51 16 -60 6 -22 -12 -23 -32 -3 -17 17 -44 20 -44 5 0 -5 -7 -10 -15 -10 -8
0 -15 2 -15 5 0 3 7 17 15 30 8 14 22 36 30 50 22 35 33 31 45 -17z m-466 -28
c0 -20 6 -39 14 -44 12 -7 12 -10 1 -17 -8 -5 -20 -2 -31 8 -17 15 -18 15 -18
-5 0 -38 -17 -24 -29 22 -18 73 -16 78 27 74 35 -3 37 -5 36 -38z m703 -34
l-6 -41 29 35 c38 46 54 32 44 -39 -4 -35 -11 -51 -21 -51 -12 0 -14 8 -9 38
l6 37 -23 -27 c-32 -39 -47 -36 -47 9 l0 37 -17 -24 c-9 -14 -18 -27 -19 -29
-1 -1 -7 0 -13 3 -17 11 47 106 66 99 12 -5 14 -16 10 -47z m-1237 40 c0 -2
-8 -10 -17 -17 -16 -13 -17 -12 -4 4 13 16 21 21 21 13z m-40 -30 c0 -2 -8
-10 -17 -17 -16 -13 -17 -12 -4 4 13 16 21 21 21 13z m350 -6 c0 -6 -6 -13
-14 -16 -12 -5 -12 -13 4 -50 25 -57 1 -62 -24 -5 -14 29 -22 37 -37 34 -34
-9 -20 14 19 30 46 19 52 20 52 7z m-447 -78 c-29 -26 -74 -70 -100 -98 -34
-36 -38 -39 -15 -10 34 42 153 156 162 155 3 0 -18 -21 -47 -47z m1616 -39
c-28 -48 -47 -69 -55 -60 -10 10 45 97 62 97 13 0 12 -7 -7 -37z m-1389 -12
c0 -5 -9 -11 -20 -13 -35 -5 -17 -23 19 -20 38 4 55 -12 40 -40 -14 -27 -46
-41 -67 -29 -18 10 -17 11 36 27 29 8 9 23 -30 21 -47 -2 -62 18 -33 47 18 17
55 22 55 7z m1557 -103 l-5 -40 24 23 c13 12 27 19 31 16 9 -10 -50 -81 -71
-85 -14 -3 -16 3 -10 40 l7 43 -20 -24 c-11 -14 -25 -21 -32 -17 -7 5 1 21 26
51 21 23 42 41 47 38 4 -3 6 -23 3 -45z m-1937 -12 c0 -2 -8 -10 -17 -17 -16
-13 -17 -12 -4 4 13 16 21 21 21 13z m-30 -40 c0 -2 -8 -10 -17 -17 -16 -13
-17 -12 -4 4 13 16 21 21 21 13z m2186 -134 c6 -13 9 -33 7 -44 -6 -22 -19
-13 -25 16 -5 30 -35 44 -54 24 -18 -18 -11 -58 11 -58 9 0 12 6 9 15 -4 8 -1
15 5 15 12 0 35 -39 27 -47 -10 -10 -56 -6 -71 7 -20 16 -19 64 1 85 24 23 76
16 90 -13z m-2112 -17 c-7 -27 4 -33 24 -13 16 16 28 2 13 -16 -9 -10 -9 -16
-1 -21 6 -4 17 1 24 11 8 10 15 13 19 7 4 -6 -1 -21 -11 -34 l-19 -22 -46 32
c-46 31 -47 32 -31 56 21 32 36 32 28 0z m-174 -5 c-6 -11 -13 -20 -16 -20 -2
0 0 9 6 20 6 11 13 20 16 20 2 0 0 -9 -6 -20z m-49 -97 c-12 -20 -14 -14 -5
12 4 9 9 14 11 11 3 -2 0 -13 -6 -23z m-37 -94 c-95 -269 -89 -566 19 -835
l34 -84 -30 -15 c-39 -19 -40 -18 -71 115 -65 273 -57 505 25 774 17 54 32 96
35 94 2 -3 -3 -25 -12 -49z m209 -66 c-3 -8 -12 -12 -20 -9 -8 3 -35 6 -59 6
-24 0 -44 5 -44 10 0 6 21 10 47 10 l47 0 -32 33 c-48 49 -25 54 24 6 25 -25
40 -47 37 -56z m2467 52 c0 -5 -5 -3 -10 5 -5 8 -10 20 -10 25 0 6 5 3 10 -5
5 -8 10 -19 10 -25z m20 -50 c0 -5 -5 -3 -10 5 -5 8 -10 20 -10 25 0 6 5 3 10
-5 5 -8 10 -19 10 -25z m-2111 -84 l-24 -19 0 -249 0 -248 60 -3 c104 -6 161
13 220 72 l51 51 -20 -67 -21 -68 -210 1 c-132 0 -202 4 -188 9 31 13 35 45
31 288 -3 211 -3 214 -27 233 l-23 19 87 0 87 0 -23 -19z m1536 -13 c28 -10
58 -24 68 -32 16 -12 16 -16 2 -50 l-16 -38 -30 38 c-51 64 -92 88 -162 92
-69 3 -112 -15 -143 -63 -37 -56 18 -102 160 -135 109 -25 168 -57 190 -104
20 -43 20 -75 0 -126 -44 -109 -250 -133 -386 -44 l-38 24 1 73 1 72 14 -41
c41 -116 157 -186 268 -162 94 20 135 98 85 162 -29 36 -64 53 -164 76 -47 11
-103 29 -124 40 -171 87 -47 264 169 243 30 -3 78 -14 105 -25z m624 -67 c12
-49 21 -97 20 -107 0 -11 -11 26 -24 81 -26 109 -27 115 -21 115 2 0 14 -40
25 -89z m-165 53 c9 -33 -2 -45 -18 -21 -18 23 -30 22 -23 -3 3 -13 0 -20 -9
-20 -8 0 -14 7 -14 15 0 11 -7 14 -24 9 -43 -10 -37 14 6 29 62 22 75 21 82
-9z m-2451 -74 c4 0 7 -4 7 -10 0 -13 -24 -13 -71 2 -22 6 -39 17 -39 24 0 10
9 10 48 -1 26 -8 50 -15 55 -15z m2656 -319 c1 -74 -1 -132 -3 -130 -2 2 -5
81 -8 174 -3 97 -2 153 3 130 4 -22 8 -100 8 -174z m-161 171 c29 -37 0 -92
-49 -92 -29 0 -59 31 -59 61 0 10 12 27 27 38 28 23 59 20 81 -7z m-2526 -55
c-4 -31 -6 -33 -40 -29 -62 5 -83 12 -76 23 4 7 23 8 50 4 40 -6 44 -4 44 14
0 12 6 21 13 21 9 0 12 -11 9 -33z m2523 -212 c29 -28 31 -42 9 -73 -18 -26
-60 -29 -86 -5 -38 34 -11 97 45 102 4 1 19 -10 32 -24z m152 -102 c-3 -10 -5
-2 -5 17 0 19 2 27 5 18 2 -10 2 -26 0 -35z m-10 -65 c-3 -7 -5 -2 -5 12 0 14
2 19 5 13 2 -7 2 -19 0 -25z m-10 -50 c-3 -8 -6 -5 -6 6 -1 11 2 17 5 13 3 -3
4 -12 1 -19z m-170 -49 c19 26 25 6 12 -38 -13 -42 -29 -55 -29 -23 0 13 -12
22 -40 31 -22 6 -40 18 -40 25 0 12 7 12 42 1 37 -11 44 -10 55 4z m-1484 -66
c28 -12 37 -22 37 -40 0 -20 -5 -23 -37 -23 -21 0 -51 9 -68 20 -29 19 -29 19
-61 0 -31 -20 -94 -27 -94 -12 0 13 43 50 70 60 39 15 112 13 153 -5z m-157
-105 c4 -18 7 -35 7 -38 -1 -3 21 -5 48 -5 31 0 49 4 49 12 0 7 5 24 12 38 9
20 18 25 49 25 33 0 39 -4 56 -38 10 -21 24 -37 31 -34 25 8 13 -72 -17 -120
-29 -46 -82 -84 -101 -73 -5 3 -11 1 -15 -5 -9 -14 -72 -13 -98 2 -12 7 -29
13 -37 14 -26 5 -78 71 -90 115 -10 38 -9 48 11 91 20 43 26 48 55 48 28 0 33
-4 40 -32z m1529 -30 c48 -23 51 -28 35 -59 -11 -20 -50 -27 -50 -8 0 6 -7 9
-15 5 -38 -14 -58 22 -35 65 13 23 10 24 65 -3z m-2300 -65 c-2 -7 1 -12 7
-10 7 1 12 -4 13 -11 0 -7 6 -16 13 -21 8 -5 13 -11 13 -15 -3 -19 0 -27 8
-21 5 3 13 0 17 -6 4 -8 3 -9 -4 -5 -7 4 -12 1 -12 -9 0 -9 5 -13 10 -10 6 3
10 1 10 -4 0 -6 7 -11 15 -11 8 0 16 -4 16 -10 1 -5 3 -14 4 -20 1 -5 3 -14 4
-20 0 -5 6 -10 12 -10 8 0 7 6 -2 18 -7 9 -1 6 15 -8 33 -30 28 -29 52 -10 17
14 18 14 6 -2 -13 -16 -28 -18 -48 -5 -20 12 -24 -20 -4 -38 14 -12 20 -13 26
-4 5 8 3 10 -6 4 -8 -5 -11 -4 -7 3 4 5 15 9 25 7 9 -1 24 3 32 9 8 6 7 1 -4
-11 -10 -13 -22 -20 -26 -18 -16 10 -17 -20 -2 -37 13 -15 13 -18 1 -19 -8 -1
-18 -1 -22 0 -5 1 -6 -3 -2 -9 3 -6 10 -8 14 -5 5 2 16 -4 26 -15 10 -11 22
-17 26 -14 12 7 11 -10 -1 -22 -7 -7 -6 -11 4 -11 8 0 13 3 11 7 -3 4 4 15 14
25 11 9 18 25 16 36 -2 10 0 21 4 23 4 3 6 -12 5 -32 -1 -20 -3 -37 -4 -37 -1
0 -3 -13 -4 -28 -2 -16 1 -26 8 -24 6 2 11 13 11 24 0 12 3 24 6 27 3 3 5 -8
5 -26 -1 -17 4 -33 10 -35 7 -2 11 7 9 26 l-2 30 63 -32 c35 -17 62 -33 60
-35 -2 -2 -27 8 -55 22 -28 14 -52 26 -55 26 -10 0 2 -32 15 -41 19 -12 32
-11 24 1 -4 6 18 -2 49 -17 30 -15 54 -29 52 -31 -2 -2 -22 6 -45 17 -45 23
-55 26 -46 11 4 -6 -1 -7 -12 -4 -13 4 -11 0 7 -15 21 -18 22 -20 5 -15 -17 5
-16 2 5 -15 21 -18 22 -20 5 -15 l-20 6 20 -17 c11 -9 29 -23 40 -31 27 -20
-3 -6 -37 18 -15 11 -27 24 -25 30 1 6 -4 13 -12 16 -9 3 -11 0 -6 -9 16 -25
-61 36 -141 114 -45 42 -108 111 -140 152 -64 81 -164 242 -164 263 0 7 10 17
23 21 18 8 27 4 49 -22 15 -18 26 -38 23 -44z m2180 -159 c15 -25 23 -50 19
-54 -10 -10 -124 19 -124 32 0 4 8 8 19 8 23 0 45 25 38 44 -6 16 2 28 13 21
5 -3 20 -26 35 -51z m-1638 20 c-3 -3 -12 -4 -19 -1 -8 3 -5 6 6 6 11 1 17 -2
13 -5z m190 -50 c-3 -3 -12 -4 -19 -1 -8 3 -5 6 6 6 11 1 17 -2 13 -5z m-70
-20 c-3 -3 -12 -4 -19 -1 -8 3 -5 6 6 6 11 1 17 -2 13 -5z m-422 -21 c-2 -10
-4 -20 -5 -23 -1 -3 -2 -8 -2 -12 1 -3 -5 -12 -13 -18 -8 -7 -15 -17 -15 -23
0 -6 11 0 25 13 13 12 22 26 20 31 -3 4 -1 10 4 13 7 5 8 -22 1 -31 -2 -2 -3
-13 -4 -25 0 -12 -9 -22 -18 -24 -19 -2 -45 22 -34 33 3 3 -1 14 -10 24 -15
17 -15 18 5 14 19 -3 33 7 37 28 3 14 4 17 8 17 2 0 3 -8 1 -17z m258 10 c-7
-2 -19 -2 -25 0 -7 3 -2 5 12 5 14 0 19 -2 13 -5z m80 -10 c-7 -2 -19 -2 -25
0 -7 3 -2 5 12 5 14 0 19 -2 13 -5z m-126 -9 c-3 -3 -12 -4 -19 -1 -8 3 -5 6
6 6 11 1 17 -2 13 -5z m190 0 c-3 -3 -12 -4 -19 -1 -8 3 -5 6 6 6 11 1 17 -2
13 -5z m-130 -10 c-3 -3 -12 -4 -19 -1 -8 3 -5 6 6 6 11 1 17 -2 13 -5z m190
0 c-3 -3 -12 -4 -19 -1 -8 3 -5 6 6 6 11 1 17 -2 13 -5z m380 -3 c117 -1 122
-2 128 -23 19 -66 20 -64 -14 -35 -17 14 -48 31 -69 37 -43 12 -131 13 -133 3
-6 -33 -4 -193 1 -193 4 0 13 7 20 15 15 18 40 19 92 3 30 -9 44 -9 58 0 15 9
17 8 13 -9 -12 -43 -74 -54 -144 -25 -30 13 -47 -18 -44 -81 3 -80 3 -80 21
-97 14 -15 9 -16 -52 -16 -61 0 -66 1 -48 14 17 13 19 28 20 180 1 92 -2 169
-7 172 -5 3 -6 10 -3 16 4 6 -3 18 -15 27 -20 16 -20 16 17 14 20 -1 92 -2
159 -2z m-500 -7 c-3 -3 -12 -4 -19 -1 -8 3 -5 6 6 6 11 1 17 -2 13 -5z m-257
-14 c13 -9 13 -10 0 -10 -13 0 -13 -1 0 -10 8 -5 11 -10 5 -10 -5 0 -17 5 -25
10 -13 9 -13 10 0 10 13 0 13 1 0 10 -8 5 -10 10 -5 10 6 0 17 -5 25 -10z
m147 4 c-3 -3 -12 -4 -19 -1 -8 3 -5 6 6 6 11 1 17 -2 13 -5z m160 0 c-3 -3
-12 -4 -19 -1 -8 3 -5 6 6 6 11 1 17 -2 13 -5z m-110 -10 c-3 -3 -12 -4 -19
-1 -8 3 -5 6 6 6 11 1 17 -2 13 -5z m50 -10 c-3 -3 -12 -4 -19 -1 -8 3 -5 6 6
6 11 1 17 -2 13 -5z m1447 -47 c37 -47 26 -61 -17 -20 -26 25 -35 29 -49 20
-27 -18 -33 1 -7 22 30 25 36 23 73 -22z m-1487 27 c-3 -3 -12 -4 -19 -1 -8 3
-5 6 6 6 11 1 17 -2 13 -5z m140 0 c-3 -3 -12 -4 -19 -1 -8 3 -5 6 6 6 11 1
17 -2 13 -5z m-100 -10 c-3 -3 -12 -4 -19 -1 -8 3 -5 6 6 6 11 1 17 -2 13 -5z
m50 -10 c-3 -3 -12 -4 -19 -1 -8 3 -5 6 6 6 11 1 17 -2 13 -5z m-162 -14 c13
-5 14 -9 5 -9 -8 0 -24 4 -35 9 -13 5 -14 9 -5 9 8 0 24 -4 35 -9z m72 4 c-3
-3 -12 -4 -19 -1 -8 3 -5 6 6 6 11 1 17 -2 13 -5z m130 0 c-3 -3 -12 -4 -19
-1 -8 3 -5 6 6 6 11 1 17 -2 13 -5z m-90 -10 c-3 -3 -12 -4 -19 -1 -8 3 -5 6
6 6 11 1 17 -2 13 -5z m40 -10 c-3 -3 -12 -4 -19 -1 -8 3 -5 6 6 6 11 1 17 -2
13 -5z m-97 -31 c30 -11 31 -12 6 -8 -16 4 -43 13 -60 20 -23 11 -25 13 -6 8
14 -3 41 -12 60 -20z m-90 7 c8 -5 11 -10 5 -10 -5 0 -17 5 -25 10 -8 5 -10
10 -5 10 6 0 17 -5 25 -10z m50 -20 c8 -5 11 -10 5 -10 -5 0 -17 5 -25 10 -8
5 -10 10 -5 10 6 0 17 -5 25 -10z m1364 -66 c19 -31 25 -49 18 -56 -6 -6 -17
3 -32 31 -20 34 -26 39 -42 30 -30 -16 -36 0 -8 21 14 11 27 20 30 20 3 0 18
-21 34 -46z m-1318 -42 c-5 -4 -126 56 -126 63 0 3 29 -10 65 -27 35 -18 63
-34 61 -36z m-56 2 c0 -2 -13 2 -30 11 -16 9 -30 18 -30 21 0 2 14 -2 30 -11
17 -9 30 -18 30 -21z m70 26 c8 -5 11 -10 5 -10 -5 0 -17 5 -25 10 -8 5 -10
10 -5 10 6 0 17 -5 25 -10z m1470 -54 c-19 -18 -158 -94 -235 -128 -72 -32
-222 -76 -279 -83 -35 -4 -37 -3 -11 4 23 7 25 9 10 11 -11 1 -23 2 -27 1 -4
0 -5 6 -2 14 4 8 9 13 13 11 3 -2 15 0 26 5 17 7 16 8 -8 8 -16 1 -26 5 -22
11 4 6 10 8 15 5 4 -3 13 2 20 10 9 11 34 15 97 15 112 0 205 24 317 80 108
55 104 54 86 36z m-1480 -32 c0 -2 -13 2 -30 11 -16 9 -30 18 -30 21 0 2 14
-2 30 -11 17 -9 30 -18 30 -21z m86 -72 c-5 -4 -86 36 -86 43 0 3 20 -5 45
-17 24 -12 43 -23 41 -26z"/>
<path d="M2626 3661 c-4 -7 -5 -15 -2 -18 9 -9 19 4 14 18 -4 11 -6 11 -12 0z"/>
<path d="M2150 3645 c0 -9 5 -15 11 -13 6 2 11 8 11 13 0 5 -5 11 -11 13 -6 2
-11 -4 -11 -13z"/>
<path d="M3703 2564 c-7 -18 6 -45 24 -51 6 -2 18 3 27 12 12 12 13 21 6 36
-13 23 -48 25 -57 3z"/>
<path d="M3710 2291 c-7 -15 -6 -24 6 -36 9 -9 21 -14 27 -12 18 6 31 33 24
51 -9 22 -44 20 -57 -3z"/>
<path d="M2308 1788 c-2 -6 -20 -12 -40 -12 -31 -1 -39 -6 -52 -33 -14 -30
-20 -33 -61 -33 -42 0 -48 3 -66 35 -17 28 -27 35 -51 35 -29 0 -30 -2 -24
-32 3 -18 20 -46 37 -61 31 -28 31 -29 46 -8 21 31 95 29 120 -3 l19 -24 38
29 c34 25 38 33 40 73 2 47 1 55 -6 34z"/>
<path d="M3576 1833 c-11 -11 -6 -23 9 -23 8 0 15 4 15 9 0 13 -16 22 -24 14z"/>
<path d="M3620 1805 c0 -16 16 -20 24 -6 3 5 -1 11 -9 15 -9 3 -15 0 -15 -9z"/>
<path d="M1583 1438 c-4 -7 -8 -17 -8 -23 -1 -5 -7 -9 -15 -7 -10 3 -9 -3 4
-17 24 -26 23 -26 21 7 -1 15 2 33 8 40 5 6 7 12 4 12 -3 0 -9 -6 -14 -12z"/>
<path d="M1606 1371 c-9 -13 52 -61 69 -55 8 4 12 10 9 16 -3 5 -12 7 -18 5
-7 -3 -19 -1 -27 5 -11 8 -11 9 2 5 9 -3 22 -1 30 4 12 7 12 9 -1 10 -8 1 -19
1 -24 0 -4 -1 -14 3 -21 9 -8 7 -15 7 -19 1z"/>
<path d="M3466 1612 c-3 -6 1 -13 10 -16 23 -9 28 -2 10 13 -8 7 -17 8 -20 3z"/>
<path d="M1526 1508 c3 -5 10 -6 15 -3 13 9 11 12 -6 12 -8 0 -12 -4 -9 -9z"/>
<path d="M1551 1477 c-8 -10 -7 -14 2 -14 8 0 14 6 14 14 0 7 -1 13 -2 13 -2
0 -8 -6 -14 -13z"/>
</g>
</svg>
